<svg width="211" height="211" viewBox="0 0 211 211" fill="none" xmlns="http://www.w3.org/2000/svg">
<path d="M0 14C0 6.26801 6.26801 0 14 0H197C204.732 0 211 6.26801 211 14V197C211 204.732 204.732 211 197 211H14C6.26801 211 0 204.732 0 197V14Z" fill="black"/>
<path d="M48.257 184H64.1549V28.6773L26 32.741V46.5123H48.257V184Z" fill="#FBDF56"/>
<path d="M137.537 114.24C127.771 114.24 119.368 110.854 112.328 103.63C105.514 96.631 102.107 88.2778 102.107 78.5702C102.107 69.0883 105.514 60.9609 112.555 53.9624C119.368 47.1896 127.771 43.8032 137.764 43.8032C147.303 43.8032 155.933 47.4153 163.201 54.4139C170.241 61.4124 173.875 69.5398 173.875 79.2475C173.875 88.7294 170.241 97.0825 162.974 103.855C159.794 107.016 155.933 109.725 151.618 111.531C147.076 113.337 142.534 114.24 137.537 114.24ZM85.9825 79.699C85.9825 94.5991 91.2061 106.79 101.88 116.272C111.646 125.302 124.137 130.043 139.808 130.495L144.35 127.56L97.111 184H118.005L178.417 111.531C186.139 102.501 190 91.6642 190 79.2475C190 65.0246 184.776 53.0593 174.783 43.1259C164.336 33.1925 152.072 28 137.991 28C123.456 28 111.192 32.9667 101.199 42.9002C96.4297 47.6411 92.7959 53.0593 90.0705 59.1548C87.3452 65.4761 85.9825 72.2489 85.9825 79.699Z" fill="#FBDF56"/>
</svg>
