<svg width="600" height="212" viewBox="0 0 600 212" fill="none" xmlns="http://www.w3.org/2000/svg">
<path d="M157.75 209.098C157.75 199.754 154.389 192.393 147.844 187.438C140.096 181.492 131.746 178.554 99.3735 170.237C58.8634 159.867 41.9164 153.32 27.1629 142.419C22.6343 139.092 15.6998 132.155 12.7987 128.12C3.70602 115.379 -0.574959 99.4878 0.0618802 80.6945C0.94638 54.5396 13.294 33.021 36.0079 18.0855C49.9123 8.95426 67.7791 3.04374 87.875 0.884808C99.3735 -0.353923 115.224 -0.141569 127.677 1.45109C171.195 6.9015 197.376 27.2875 206.929 63.1045C208.839 70.2538 210.007 78.6417 210.643 89.8257L210.82 93.0818H150.71L150.498 91.0644C149.79 84.1983 149.436 81.8978 148.552 78.394C143.952 60.0962 131.498 50.0094 110.624 47.7442C106.025 47.2134 95.3048 47.5319 91.1299 48.3105C83.8063 49.6554 76.4472 52.6638 71.7771 56.203C63.7458 62.2905 59.9956 70.9262 61.1277 80.5883C62.2953 90.2858 67.1423 96.4087 78.0393 101.894C86.6367 106.177 96.4369 109.291 121.734 115.768C151.807 123.413 164.791 127.695 177.563 134.102C200.206 145.427 212.802 160.752 217.684 182.837L218.533 186.694L219.17 185.102C228.05 162.875 251.507 148.825 291.204 141.959C300.438 140.331 320.887 137.818 334.473 136.65C336.808 136.437 339.568 136.154 340.594 136.048L342.434 135.871V130.952C342.434 115.591 337.728 106.071 327.857 101.399C318.446 96.9396 303.976 97.5059 295.379 102.602C291.876 104.69 288.338 108.584 286.392 112.618C284.835 115.733 282.996 121.82 282.996 123.838C282.996 124.333 282.889 125.112 282.783 125.572L282.571 126.351H223.663L223.769 125.395C224.76 116.158 225.786 110.743 227.838 104.62C233.817 86.782 245.705 73.3683 263.289 64.7326C273.408 59.7776 283.845 56.8755 297.855 55.1412C303.728 54.398 324.001 54.5396 330.228 55.3182C357.718 58.8574 376.363 68.8381 388.109 86.3219C394.195 95.3469 398.051 105.717 400.174 118.777C400.952 123.661 400.952 124.015 401.058 167.866L401.2 212H342.434V178.767L340.594 178.944C308.151 181.669 297.82 183.509 288.904 188.181C284.517 190.517 280.377 194.304 278.715 197.595C277.016 200.851 276.556 202.869 276.379 207.505L276.167 212H157.75V209.098Z" fill="black"/>
<path d="M419.916 0H481.123V212H419.916V0Z" fill="black"/>
<path d="M499.875 20.5275H561.082V59.813H600V105.823H561.082V212H499.875V20.5275Z" fill="black"/>
</svg>
