<svg width="183" height="271" viewBox="0 0 183 271" fill="none" xmlns="http://www.w3.org/2000/svg">
<path d="M15.7615 233.348V222.262H17.8295V227.185H17.8588C18.1988 226.298 18.7028 225.352 19.1601 224.524L20.3721 222.262H22.7081L19.9735 227.022L22.8415 233.348H20.5055L18.5535 228.972L17.8295 230.17V233.348H15.7615Z" fill="#231F20"/>
<path d="M25.3129 230.629C25.3129 231.633 25.4009 232.091 26.3329 232.091C27.2196 232.091 27.2929 231.633 27.2929 230.629V227.849C27.2929 227.079 27.2929 226.267 26.3329 226.267C25.3129 226.267 25.3129 227.079 25.3129 227.849V230.629ZM23.3903 229.475C23.3903 226.623 23.4503 224.789 26.3329 224.789C29.1716 224.789 29.2143 226.623 29.2143 229.475C29.2143 232.373 28.8316 233.613 26.3329 233.57C23.7916 233.613 23.3903 232.373 23.3903 229.475Z" fill="#231F20"/>
<path d="M31.3195 235.727C31.7915 235.89 32.1021 235.963 32.5901 235.963C32.9301 235.963 33.2981 235.652 33.2395 235.284C33.1955 235.091 33.0928 234.975 32.9448 234.928C32.6488 234.767 32.2795 234.87 31.9835 234.975L31.6728 234.678L32.4128 233.524C31.8208 233.45 31.3475 233.214 30.9781 232.846C30.5208 232.356 30.2968 231.559 30.3435 230.45V227.746C30.3435 225.41 31.4675 224.788 32.9448 224.788C34.8795 224.788 35.5768 226.002 35.5768 227.244V227.908H33.6528V226.978C33.6235 226.504 33.4021 226.267 32.9875 226.267C32.2355 226.267 32.2648 227.111 32.2648 228.131V230.096C32.2208 231.707 32.4128 232.018 32.9875 232.091C33.5648 232.091 33.6088 231.53 33.6528 230.864V230.096H35.5768V230.864C35.5768 231.738 35.3675 232.416 34.9701 232.875C34.5995 233.303 34.0101 233.524 33.1808 233.57L32.7075 234.279C32.8555 234.22 33.0181 234.191 33.1955 234.191C33.5648 234.191 33.9195 234.264 34.2008 234.544C34.4368 234.722 34.5261 235.048 34.5261 235.328C34.5261 235.61 34.4675 235.758 34.3341 236.008C33.7861 236.718 32.8248 236.822 31.9981 236.659L31.0381 236.348L31.3195 235.727Z" fill="#231F20"/>
<path d="M44.168 219.381H46.06V221.079H44.168V219.381ZM41.2853 219.381H43.1627V221.079H41.2853V219.381ZM45.1293 222.262H47.1986V229.991C47.1986 232.431 46.4013 233.613 43.6947 233.613C40.9747 233.613 40.1613 232.431 40.1613 229.991V222.262H42.2307V229.815C42.2307 230.881 42.3067 231.943 43.7107 231.943C45.0693 231.943 45.1293 230.881 45.1293 229.815V222.262Z" fill="#231F20"/>
<path d="M50.6469 225.868H50.6749C51.1043 224.923 51.9763 224.788 52.4056 224.788C53.4843 224.788 54.4003 225.44 54.3256 226.918V233.347H52.4056V227.791C52.4056 226.962 52.3149 226.46 51.5923 226.415C50.8669 226.372 50.6003 227.08 50.6469 227.954V233.347H48.7243V225.011H50.6469V225.868Z" fill="#231F20"/>
<path d="M55.94 225.011H57.8613V233.347H55.94V225.011ZM55.94 222.262H57.8613V224.007H55.94V222.262Z" fill="#231F20"/>
<path d="M58.738 225.011H60.8073L61.6193 229.683C61.782 230.422 61.8393 231.752 61.886 232.151H61.9153C61.9593 231.752 62.018 230.422 62.1807 229.683L63.01 225.011H65.0047L63.082 233.347H60.6873L58.738 225.011Z" fill="#231F20"/>
<path d="M69.3969 228.099V227.375C69.3823 226.534 69.1609 226.267 68.3929 226.267C67.4303 226.267 67.4756 227.007 67.4756 227.761V228.099H69.3969ZM65.5556 227.879C65.4503 225.913 66.4543 224.789 68.3623 224.789C71.0223 224.789 71.3169 226.165 71.3169 228.455V229.578H67.4756V230.791C67.4756 231.883 67.9209 232.091 68.4796 232.091C69.1916 232.091 69.4116 231.59 69.3689 230.525H71.2889C71.3636 232.373 70.5929 233.57 68.6276 233.57C66.3969 233.57 65.5076 232.535 65.5556 230.066V227.879Z" fill="#231F20"/>
<path d="M74.5453 226.489H74.5747C74.8107 225.883 75.0467 225.544 75.3293 225.307C75.8747 224.848 76.2453 224.879 76.5253 224.863V227.139C75.4627 227.021 74.6627 227.319 74.6173 228.529V233.348H72.6973V225.011H74.5453V226.489Z" fill="#231F20"/>
<path d="M78.7016 230.598C78.5389 232.137 79.1456 232.091 79.5883 232.091C80.1349 232.091 80.5176 231.693 80.3856 231.159C80.3403 230.686 79.8096 230.421 79.4403 230.17L78.3909 229.445C77.4309 228.781 76.8096 228.011 76.8096 226.814C76.8096 225.514 77.8283 224.789 79.6763 224.789C81.5536 224.789 82.3949 225.765 82.3523 227.553H80.4309C80.4749 226.606 80.2069 226.267 79.5429 226.267C79.0843 226.267 78.7296 226.475 78.7296 226.947C78.7296 227.435 79.0843 227.657 79.4536 227.909L81.0216 228.971C81.4936 229.253 82.2923 230.066 82.3376 230.613C82.5003 232.062 82.1603 233.57 79.4843 233.57C78.4789 233.57 76.5416 233.126 76.7803 230.598H78.7016Z" fill="#231F20"/>
<path d="M83.656 225.011H85.576V233.347H83.656V225.011ZM83.656 222.262H85.576V224.007H83.656V222.262Z" fill="#231F20"/>
<path d="M90.0277 233.377C88.8904 233.495 87.2944 233.629 87.2944 232.062V226.415H86.5104V225.011H87.2797V222.719H89.2157V225.011H90.0277V226.415H89.2157V231.59C89.2584 231.943 89.7931 231.914 90.0277 231.869V233.377Z" fill="#231F20"/>
<path d="M94.6567 228.099V227.375C94.642 226.534 94.4207 226.267 93.6527 226.267C92.69 226.267 92.7367 227.007 92.7367 227.761V228.099H94.6567ZM90.8153 227.879C90.71 225.913 91.714 224.789 93.622 224.789C96.282 224.789 96.5767 226.165 96.5767 228.455V229.578H92.7367V230.791C92.7367 231.883 93.1807 232.091 93.7393 232.091C94.4513 232.091 94.6713 231.59 94.6287 230.525H96.5487C96.6233 232.373 95.8527 233.57 93.8873 233.57C91.6567 233.57 90.7673 232.535 90.8153 230.066V227.879Z" fill="#231F20"/>
<path d="M99.4047 230.598C99.242 232.137 99.8487 232.091 100.293 232.091C100.839 232.091 101.225 231.693 101.091 231.159C101.047 230.686 100.513 230.421 100.145 230.17L99.094 229.445C98.134 228.781 97.5127 228.011 97.5127 226.814C97.5127 225.514 98.534 224.789 100.381 224.789C102.259 224.789 103.102 225.765 103.057 227.553H101.134C101.179 226.606 100.914 226.267 100.25 226.267C99.7913 226.267 99.4353 226.475 99.4353 226.947C99.4353 227.435 99.7913 227.657 100.159 227.909L101.726 228.971C102.199 229.253 102.997 230.066 103.041 230.613C103.205 232.062 102.863 233.57 100.187 233.57C99.1847 233.57 97.2487 233.126 97.4833 230.598H99.4047Z" fill="#231F20"/>
<path d="M104.36 225.011H106.283V233.347H104.36V225.011ZM104.36 222.262H106.283V224.007H104.36V222.262Z" fill="#231F20"/>
<path d="M116.042 222.262H118.259L115.863 233.347H113.099L110.646 222.262H112.863L114.165 229.372C114.282 230.008 114.355 230.628 114.414 231.264C114.461 231.559 114.505 231.87 114.505 232.179H114.533C114.533 231.87 114.578 231.559 114.623 231.264C114.681 230.628 114.755 230.008 114.873 229.372L116.042 222.262Z" fill="#231F20"/>
<path d="M122.415 228.099V227.375C122.4 226.534 122.18 226.267 121.411 226.267C120.451 226.267 120.494 227.007 120.494 227.761V228.099H122.415ZM118.574 227.879C118.468 225.913 119.474 224.789 121.383 224.789C124.042 224.789 124.338 226.165 124.338 228.455V229.578H120.494V230.791C120.494 231.883 120.939 232.091 121.499 232.091C122.21 232.091 122.43 231.59 122.386 230.525H124.307C124.383 232.373 123.614 233.57 121.646 233.57C119.415 233.57 118.528 232.535 118.574 230.066V227.879Z" fill="#231F20"/>
<path d="M125.732 233.348V222.262H127.654V225.869H127.682C128.229 224.88 128.997 224.789 129.413 224.789C130.492 224.789 131.408 225.441 131.333 226.917V233.348H129.413V227.644C129.413 226.814 129.322 226.313 128.6 226.268C127.874 226.224 127.608 226.933 127.654 227.805V233.348H125.732Z" fill="#231F20"/>
<path d="M134.722 230.613C134.722 231.605 135.032 232.091 135.651 232.091C136.244 232.091 136.451 231.471 136.496 230.658V227.879C136.451 227.051 136.511 226.267 135.623 226.267C134.736 226.267 134.676 227.45 134.722 228.115V230.613ZM132.799 222.262H134.722V224.922C134.722 225.205 134.691 225.455 134.676 225.854H134.706C135.107 225.042 135.594 224.775 136.42 224.789C137.663 224.834 138.372 225.441 138.416 227.746V230.761C138.372 232.106 138.032 233.57 136.42 233.57C135.608 233.525 135.091 233.289 134.662 232.462H134.634V233.347H132.799V222.262Z" fill="#231F20"/>
<path d="M139.973 225.011H141.895V233.347H139.973V225.011ZM139.973 222.262H141.895V224.007H139.973V222.262Z" fill="#231F20"/>
<path d="M146.953 233.348V222.262H149.021V227.185H149.053C149.392 226.298 149.896 225.352 150.354 224.524L151.564 222.262H153.9L151.166 227.022L154.033 233.348H151.697L149.748 228.972L149.021 230.17V233.348H146.953Z" fill="#231F20"/>
<path d="M156.506 230.629C156.506 231.633 156.594 232.091 157.525 232.091C158.413 232.091 158.486 231.633 158.486 230.629V227.849C158.486 227.079 158.486 226.267 157.525 226.267C156.506 226.267 156.506 227.079 156.506 227.849V230.629ZM154.586 229.475C154.586 226.623 154.644 224.789 157.525 224.789C160.362 224.789 160.409 226.623 160.409 229.475C160.409 232.373 160.024 233.613 157.525 233.57C154.982 233.613 154.586 232.373 154.586 229.475Z" fill="#231F20"/>
<path d="M162.511 235.727C162.983 235.89 163.293 235.963 163.781 235.963C164.121 235.963 164.491 235.652 164.431 235.284C164.388 235.091 164.284 234.975 164.136 234.928C163.84 234.767 163.471 234.87 163.175 234.975L162.864 234.678L163.604 233.524C163.012 233.45 162.539 233.214 162.172 232.846C161.712 232.356 161.491 231.559 161.536 230.45V227.746C161.536 225.41 162.659 224.788 164.136 224.788C166.072 224.788 166.768 226.002 166.768 227.244V227.908H164.847V226.978C164.816 226.504 164.593 226.267 164.18 226.267C163.428 226.267 163.456 227.111 163.456 228.131V230.096C163.413 231.707 163.604 232.018 164.18 232.091C164.756 232.091 164.801 231.53 164.847 230.864V230.096H166.768V230.864C166.768 231.738 166.561 232.416 166.161 232.875C165.792 233.303 165.201 233.524 164.373 233.57L163.9 234.279C164.048 234.22 164.211 234.191 164.388 234.191C164.756 234.191 165.112 234.264 165.392 234.544C165.631 234.722 165.717 235.048 165.717 235.328C165.717 235.61 165.659 235.758 165.525 236.008C164.979 236.718 164.017 236.822 163.189 236.659L162.229 236.348L162.511 235.727Z" fill="#231F20"/>
<path d="M4.57919 245.552H6.35253L5.79253 242.403C5.68853 241.885 5.64453 241.384 5.58319 240.865C5.56853 240.615 5.55386 240.363 5.51119 240.127H5.48186C5.43519 240.363 5.42053 240.615 5.40586 240.865C5.34853 241.384 5.30319 241.885 5.20053 242.403L4.57919 245.552ZM1.48853 249.985L4.13519 238.899H6.92986L9.44186 249.985H7.22586L6.67653 247.176H4.25386L3.70719 249.985H1.48853Z" fill="#231F20"/>
<path d="M12.0317 242.506H12.0597C12.4904 241.561 13.3624 241.426 13.7904 241.426C14.8691 241.426 15.7864 242.078 15.7131 243.556V249.985H13.7904V244.429C13.7904 243.6 13.7024 243.098 12.9771 243.053C12.2544 243.009 11.9877 243.717 12.0317 244.59V249.985H10.1104V241.648H12.0317V242.506Z" fill="#231F20"/>
<path d="M16.9437 249.986V238.899H18.8664V243.911C18.8664 244.264 18.8504 244.606 18.8357 244.959H18.8664L20.6824 241.648H22.7824L20.6824 245.004L22.7224 249.986H20.5797L19.3824 246.586L18.8664 247.444V249.986H16.9437Z" fill="#231F20"/>
<path d="M26.8493 245.595C26.3773 245.936 25.8147 246.247 25.296 246.66C25.0173 246.896 24.972 247.31 24.972 247.666C24.972 248.302 25.1627 248.73 25.8747 248.73C27.012 248.73 26.8067 247.282 26.8493 246.498V245.595ZM27.116 249.986C26.9827 249.704 26.9547 249.424 26.9973 249.128H26.968C26.5107 249.823 25.932 250.207 25.2827 250.207C23.7293 250.207 23.0507 249.439 23.0507 247.708C23.0507 245.803 24.4107 245.359 25.904 244.723C26.7307 244.383 27.012 244.028 26.8493 243.335C26.744 242.964 26.464 242.904 25.9467 242.904C25.076 242.904 24.9293 243.364 24.9427 244.119H23.1093C23.1093 242.538 23.5987 241.427 26.0227 241.427C28.636 241.427 28.816 242.788 28.7707 243.896V248.818C28.7707 249.187 28.8293 249.587 28.932 249.986H27.116Z" fill="#231F20"/>
<path d="M32.1892 243.127H32.2185C32.4572 242.52 32.6905 242.181 32.9732 241.944C33.5199 241.487 33.8905 241.516 34.1719 241.5V243.777C33.1065 243.659 32.3079 243.956 32.2639 245.167V249.985H30.3412V241.648H32.1892V243.127Z" fill="#231F20"/>
<path d="M38.4288 245.595C37.9555 245.936 37.3968 246.247 36.8781 246.66C36.5981 246.896 36.5515 247.31 36.5515 247.666C36.5515 248.302 36.7448 248.73 37.4541 248.73C38.5915 248.73 38.3848 247.282 38.4288 246.498V245.595ZM38.6955 249.986C38.5621 249.704 38.5341 249.424 38.5768 249.128H38.5475C38.0888 249.823 37.5128 250.207 36.8621 250.207C35.3115 250.207 34.6301 249.439 34.6301 247.708C34.6301 245.803 35.9915 245.359 37.4835 244.723C38.3115 244.383 38.5915 244.028 38.4288 243.335C38.3275 242.964 38.0461 242.904 37.5275 242.904C36.6555 242.904 36.5075 243.364 36.5221 244.119H34.6901C34.6901 242.538 35.1781 241.427 37.6021 241.427C40.2195 241.427 40.3968 242.788 40.3515 243.896V248.818C40.3515 249.187 40.4101 249.587 40.5141 249.986H38.6955Z" fill="#231F20"/>
<path d="M47.5851 245.552H49.3584L48.7984 242.403C48.6944 241.885 48.6504 241.384 48.5891 240.865C48.5744 240.615 48.5597 240.363 48.5171 240.127H48.4877C48.4411 240.363 48.4264 240.615 48.4117 240.865C48.3544 241.384 48.3091 241.885 48.2064 242.403L47.5851 245.552ZM44.4944 249.985L47.1411 238.899H49.9357L52.4477 249.985H50.2317L49.6824 247.176H47.2597L46.7131 249.985H44.4944Z" fill="#231F20"/>
<path d="M54.9509 243.127H54.9789C55.2163 242.52 55.4523 242.181 55.7336 241.944C56.2803 241.487 56.6509 241.516 56.9309 241.5V243.777C55.8669 243.659 55.0683 243.956 55.0229 245.167V249.985H53.1016V241.648H54.9509V243.127Z" fill="#231F20"/>
<path d="M61.1899 245.595C60.7179 245.936 60.1579 246.247 59.6392 246.66C59.3592 246.896 59.3125 247.31 59.3125 247.666C59.3125 248.302 59.5059 248.73 60.2152 248.73C61.3525 248.73 61.1472 247.282 61.1899 246.498V245.595ZM61.4565 249.986C61.3232 249.704 61.2952 249.424 61.3379 249.128H61.3085C60.8512 249.823 60.2739 250.207 59.6232 250.207C58.0725 250.207 57.3912 249.439 57.3912 247.708C57.3912 245.803 58.7525 245.359 60.2445 244.723C61.0725 244.383 61.3525 244.028 61.1899 243.335C61.0885 242.964 60.8072 242.904 60.2885 242.904C59.4165 242.904 59.2699 243.364 59.2832 244.119H57.4512C57.4512 242.538 57.9405 241.427 60.3632 241.427C62.9805 241.427 63.1579 242.788 63.1125 243.896V248.818C63.1125 249.187 63.1725 249.587 63.2752 249.986H61.4565Z" fill="#231F20"/>
<path d="M65.4809 252.365C65.9543 252.528 66.2649 252.601 66.7529 252.601C67.0929 252.601 67.4609 252.29 67.4036 251.922C67.3569 251.729 67.2556 251.612 67.1076 251.566C66.8116 251.404 66.4423 251.506 66.1476 251.612L65.8369 251.316L66.5729 250.193C66.4103 250.177 66.2196 250.148 66.0289 250.105C65.0823 249.912 64.0316 249.085 64.2076 247.236H66.1316C65.9689 248.774 66.5729 248.729 67.0169 248.729C67.5663 248.729 67.9489 248.33 67.8156 247.797C67.7716 247.325 67.2396 247.06 66.8703 246.808L65.8209 246.082C64.8596 245.418 64.2396 244.649 64.2396 243.452C64.2396 242.152 65.2583 241.426 67.1076 241.426C68.9849 241.426 69.8263 242.402 69.7836 244.19H67.8609C67.9049 243.245 67.6383 242.905 66.9743 242.905C66.5156 242.905 66.1623 243.113 66.1623 243.586C66.1623 244.073 66.5156 244.296 66.8836 244.546L68.4516 245.609C68.9236 245.892 69.7223 246.704 69.7689 247.25C69.8849 248.358 69.7076 249.424 68.5116 249.957C68.2023 250.088 67.8156 250.162 67.3423 250.193L66.8703 250.917C67.0169 250.857 67.1796 250.829 67.3569 250.829C67.7289 250.829 68.0823 250.902 68.3649 251.182C68.5983 251.36 68.6889 251.686 68.6889 251.966C68.6889 252.248 68.6289 252.396 68.4956 252.646C67.9489 253.356 66.9889 253.458 66.1623 253.296L65.2023 252.986L65.4809 252.365Z" fill="#231F20"/>
<path d="M73.7152 250.014C72.5779 250.133 70.9819 250.266 70.9819 248.701V243.053H70.1979V241.649H70.9672V239.358H72.9032V241.649H73.7152V243.053H72.9032V248.228C72.9472 248.581 73.4805 248.552 73.7152 248.508V250.014Z" fill="#231F20"/>
<path d="M74.8267 241.649H76.7467V249.986H74.8267V241.649Z" fill="#231F20"/>
<path d="M80.2107 243.127H80.2387C80.476 242.52 80.712 242.181 80.9933 241.944C81.54 241.487 81.9107 241.516 82.1907 241.5V243.777C81.128 243.659 80.328 243.956 80.2827 245.167V249.985H78.3613V241.648H80.2107V243.127Z" fill="#231F20"/>
<path d="M84.9295 242.506H84.9588C85.4028 241.59 86.1695 241.472 86.7908 241.426C87.4855 241.426 88.4601 241.708 88.5801 242.506C88.9775 241.782 89.5695 241.426 90.5148 241.426C91.9335 241.426 92.5548 242.314 92.5548 243.201V249.985H90.6348V244.354C90.6348 243.6 90.5588 242.862 89.7175 242.905C88.8908 242.95 88.7428 243.512 88.7428 244.501V249.985H86.8215V244.25C86.8215 243.497 86.7601 242.905 85.8748 242.905C84.9735 242.905 84.9295 243.586 84.9295 244.501V249.985H83.0068V241.648H84.9295V242.506Z" fill="#231F20"/>
<path d="M97.5864 245.595C97.1144 245.936 96.5531 246.247 96.0357 246.66C95.7544 246.896 95.7104 247.31 95.7104 247.666C95.7104 248.302 95.9024 248.73 96.6104 248.73C97.7491 248.73 97.5411 247.282 97.5864 246.498V245.595ZM97.8517 249.986C97.7184 249.704 97.6904 249.424 97.7344 249.128H97.7037C97.2451 249.823 96.6717 250.207 96.0197 250.207C94.4691 250.207 93.7877 249.439 93.7877 247.708C93.7877 245.803 95.1477 245.359 96.6411 244.723C97.4691 244.383 97.7491 244.028 97.5864 243.335C97.4837 242.964 97.2024 242.904 96.6864 242.904C95.8117 242.904 95.6637 243.364 95.6797 244.119H93.8477C93.8477 242.538 94.3357 241.427 96.7584 241.427C99.3757 241.427 99.5531 242.788 99.5091 243.896V248.818C99.5091 249.187 99.5664 249.587 99.6717 249.986H97.8517Z" fill="#231F20"/>
<path d="M101.285 238.899H103.207V249.986H101.285V238.899Z" fill="#231F20"/>
<path d="M108.353 245.595C107.881 245.936 107.319 246.247 106.803 246.66C106.521 246.896 106.477 247.31 106.477 247.666C106.477 248.302 106.669 248.73 107.377 248.73C108.516 248.73 108.308 247.282 108.353 246.498V245.595ZM108.619 249.986C108.485 249.704 108.456 249.424 108.501 249.128H108.471C108.012 249.823 107.437 250.207 106.787 250.207C105.236 250.207 104.555 249.439 104.555 247.708C104.555 245.803 105.915 245.359 107.408 244.723C108.236 244.383 108.516 244.028 108.353 243.335C108.251 242.964 107.969 242.904 107.453 242.904C106.579 242.904 106.431 243.364 106.447 244.119H104.615C104.615 242.538 105.103 241.427 107.525 241.427C110.143 241.427 110.32 242.788 110.276 243.896V248.818C110.276 249.187 110.333 249.587 110.439 249.986H108.619Z" fill="#231F20"/>
<path d="M113.692 243.127H113.723C113.959 242.52 114.196 242.181 114.475 241.944C115.024 241.487 115.392 241.516 115.675 241.5V243.777C114.609 243.659 113.811 243.956 113.768 245.167V249.985H111.847V241.648H113.692V243.127Z" fill="#231F20"/>
<path d="M116.609 241.649H118.529V249.986H116.609V241.649Z" fill="#231F20"/>
<path d="M128.553 238.899H130.624V246.63C130.624 249.068 129.827 250.251 127.12 250.251C124.401 250.251 123.588 249.068 123.588 246.63V238.899H125.657V246.452C125.657 247.518 125.732 248.582 127.135 248.582C128.496 248.582 128.553 247.518 128.553 246.452V238.899Z" fill="#231F20"/>
<path d="M133.348 241.648L134.193 246.068C134.324 246.823 134.399 247.532 134.472 248.286H134.503C134.561 247.562 134.665 246.838 134.797 246.127L135.64 241.648H137.591L135.565 250.104C135.092 251.98 135.035 253.176 132.373 252.795V251.302C132.683 251.302 133.511 251.464 133.511 250.931C133.511 250.635 133.409 250.163 133.333 249.867L131.324 241.648H133.348Z" fill="#231F20"/>
<path d="M141.925 244.754C141.97 244.087 141.909 242.904 141.024 242.904C140.108 242.904 140.226 243.688 140.15 244.518V247.295C140.196 248.108 140.402 248.728 140.993 248.728C141.614 248.728 141.925 248.242 141.925 247.251V244.754ZM140.241 250.918C140.241 251.079 140.313 251.212 140.461 251.284C140.624 251.39 140.814 251.404 141.053 251.404C141.866 251.404 142.013 250.754 142.013 250.104V249.143L141.985 249.114C141.584 249.926 141.053 250.163 140.226 250.207C138.614 250.207 138.273 248.743 138.23 247.412V244.398C138.273 242.092 138.984 241.472 140.226 241.426C141.082 241.412 141.645 241.782 141.894 242.506H141.925V241.648H143.845V249.734C143.845 251.45 143.373 252.795 140.742 252.795C139.457 252.795 138.436 252.322 138.318 250.918H140.241Z" fill="#231F20"/>
<path d="M149.009 248.743H148.978C148.698 249.703 148.093 250.193 147.192 250.207C145.653 250.207 145.328 249.41 145.328 248.034V241.649H147.249V247.355C147.249 247.723 147.22 248.122 147.442 248.463C147.606 248.641 147.813 248.729 148.033 248.729C148.921 248.729 148.921 247.709 148.921 247.059V241.649H150.842V249.986H149.009V248.743Z" fill="#231F20"/>
<path d="M152.589 238.899H154.509V249.986H152.589V238.899Z" fill="#231F20"/>
<path d="M159.657 245.595C159.183 245.936 158.622 246.247 158.106 246.66C157.823 246.896 157.781 247.31 157.781 247.666C157.781 248.302 157.973 248.73 158.681 248.73C159.819 248.73 159.611 247.282 159.657 246.498V245.595ZM159.922 249.986C159.789 249.704 159.759 249.424 159.805 249.128H159.774C159.315 249.823 158.741 250.207 158.09 250.207C156.539 250.207 155.858 249.439 155.858 247.708C155.858 245.803 157.218 245.359 158.711 244.723C159.539 244.383 159.819 244.028 159.657 243.335C159.554 242.964 159.271 242.904 158.755 242.904C157.882 242.904 157.734 243.364 157.75 244.119H155.918C155.918 242.538 156.406 241.427 158.827 241.427C161.446 241.427 161.623 242.788 161.579 243.896V248.818C161.579 249.187 161.637 249.587 161.742 249.986H159.922Z" fill="#231F20"/>
<path d="M165.161 242.506H165.189C165.633 241.59 166.401 241.472 167.023 241.426C167.717 241.426 168.692 241.708 168.812 242.506C169.209 241.782 169.8 241.426 170.747 241.426C172.165 241.426 172.787 242.314 172.787 243.201V249.985H170.865V244.354C170.865 243.6 170.791 242.862 169.948 242.905C169.121 242.95 168.973 243.512 168.973 244.501V249.985H167.053V244.25C167.053 243.497 166.992 242.905 166.107 242.905C165.204 242.905 165.161 243.586 165.161 244.501V249.985H163.239V241.648H165.161V242.506Z" fill="#231F20"/>
<path d="M177.818 245.595C177.345 245.936 176.783 246.247 176.267 246.66C175.985 246.896 175.942 247.31 175.942 247.666C175.942 248.302 176.134 248.73 176.842 248.73C177.981 248.73 177.773 247.282 177.818 246.498V245.595ZM178.083 249.986C177.95 249.704 177.921 249.424 177.966 249.128H177.935C177.477 249.823 176.902 250.207 176.251 250.207C174.701 250.207 174.019 249.439 174.019 247.708C174.019 245.803 175.379 245.359 176.873 244.723C177.701 244.383 177.981 244.028 177.818 243.335C177.715 242.964 177.433 242.904 176.917 242.904C176.043 242.904 175.895 243.364 175.911 244.119H174.079C174.079 242.538 174.567 241.427 176.989 241.427C179.607 241.427 179.785 242.788 179.741 243.896V248.818C179.741 249.187 179.798 249.587 179.903 249.986H178.083Z" fill="#231F20"/>
<path d="M30.6547 258.286H32.724L33.536 262.958C33.6987 263.697 33.756 265.028 33.8027 265.426H33.832C33.876 265.028 33.9347 263.697 34.0973 262.958L34.9267 258.286H36.9213L34.9987 266.622H32.604L30.6547 258.286Z" fill="#231F20"/>
<path d="M41.3136 261.375V260.651C41.2989 259.81 41.0776 259.543 40.3096 259.543C39.3469 259.543 39.3936 260.283 39.3936 261.036V261.375H41.3136ZM37.4723 261.155C37.3669 259.188 38.3709 258.064 40.2789 258.064C42.9389 258.064 43.2336 259.44 43.2336 261.731V262.854H39.3936V264.067C39.3936 265.159 39.8376 265.367 40.3963 265.367C41.1083 265.367 41.3283 264.866 41.2856 263.799H43.2056C43.2803 265.648 42.5096 266.846 40.5443 266.846C38.3136 266.846 37.4243 265.811 37.4723 263.342V261.155Z" fill="#231F20"/>
<path d="M50.2771 262.189H52.0517L51.4877 259.041C51.3851 258.523 51.3397 258.021 51.2824 257.503C51.2677 257.252 51.2531 257.001 51.2064 256.764H51.1771C51.1344 257.001 51.1197 257.252 51.1051 257.503C51.0437 258.021 51.0011 258.523 50.8957 259.041L50.2771 262.189ZM47.1877 266.623L49.8344 255.537H52.6251L55.1384 266.623H52.9211L52.3771 263.815H49.9504L49.4051 266.623H47.1877Z" fill="#231F20"/>
<path d="M57.6424 259.765H57.6731C57.9077 259.158 58.1464 258.819 58.4264 258.582C58.9731 258.123 59.3411 258.154 59.6224 258.138V260.414C58.5597 260.297 57.7597 260.594 57.7171 261.805V266.623H55.7957V258.286H57.6424V259.765Z" fill="#231F20"/>
<path d="M63.8832 262.233C63.4112 262.574 62.8472 262.885 62.3312 263.298C62.0499 263.534 62.0059 263.948 62.0059 264.304C62.0059 264.938 62.1965 265.366 62.9072 265.366C64.0459 265.366 63.8379 263.918 63.8832 263.136V262.233ZM64.1485 266.622C64.0179 266.342 63.9859 266.062 64.0312 265.765H64.0005C63.5445 266.461 62.9672 266.845 62.3165 266.845C60.7645 266.845 60.0845 266.076 60.0845 264.346C60.0845 262.44 61.4419 261.996 62.9379 261.361C63.7645 261.021 64.0459 260.666 63.8832 259.973C63.7779 259.602 63.4965 259.542 62.9805 259.542C62.1085 259.542 61.9605 260.001 61.9765 260.756H60.1432C60.1432 259.174 60.6299 258.065 63.0552 258.065C65.6712 258.065 65.8472 259.426 65.8045 260.534V265.456C65.8045 265.825 65.8619 266.225 65.9659 266.622H64.1485Z" fill="#231F20"/>
<path d="M68.1729 269.003C68.6449 269.165 68.9556 269.239 69.4436 269.239C69.7836 269.239 70.1529 268.928 70.0929 268.56C70.0503 268.367 69.9463 268.251 69.7969 268.204C69.5023 268.043 69.1329 268.145 68.8369 268.251L68.5263 267.953L69.2663 266.831C69.1049 266.815 68.9129 266.785 68.7196 266.743C67.7743 266.549 66.7249 265.723 66.9023 263.873H68.8223C68.6609 265.412 69.2663 265.367 69.7103 265.367C70.2556 265.367 70.6409 264.968 70.5089 264.436C70.4636 263.963 69.9316 263.697 69.5623 263.447L68.5116 262.72C67.5516 262.056 66.9303 261.287 66.9303 260.089C66.9303 258.791 67.9503 258.064 69.7969 258.064C71.6743 258.064 72.5183 259.041 72.4729 260.828H70.5529C70.5956 259.883 70.3316 259.543 69.6663 259.543C69.2076 259.543 68.8516 259.751 68.8516 260.224C68.8516 260.711 69.2076 260.933 69.5769 261.184L71.1449 262.248C71.6169 262.529 72.4156 263.341 72.4583 263.888C72.5783 264.997 72.4009 266.061 71.2023 266.595C70.8916 266.725 70.5089 266.8 70.0356 266.831L69.5623 267.555C69.7103 267.496 69.8729 267.467 70.0503 267.467C70.4183 267.467 70.7743 267.54 71.0543 267.82C71.2916 267.997 71.3796 268.324 71.3796 268.604C71.3796 268.885 71.3209 269.033 71.1876 269.284C70.6409 269.993 69.6796 270.097 68.8516 269.935L67.8916 269.624L68.1729 269.003Z" fill="#231F20"/>
<path d="M76.4087 266.652C75.2713 266.771 73.6753 266.904 73.6753 265.338V259.691H72.8913V258.287H73.6607V255.995H75.5967V258.287H76.4087V259.691H75.5967V264.866C75.6393 265.219 76.174 265.19 76.4087 265.144V266.652Z" fill="#231F20"/>
<path d="M77.52 258.286H79.4413V266.622H77.52V258.286Z" fill="#231F20"/>
<path d="M82.9021 259.765H82.9328C83.1675 259.158 83.4061 258.819 83.6861 258.582C84.2328 258.123 84.6008 258.154 84.8821 258.138V260.414C83.8195 260.297 83.0195 260.594 82.9768 261.805V266.623H81.0555V258.286H82.9021V259.765Z" fill="#231F20"/>
<path d="M87.6196 259.144H87.6476C88.0929 258.228 88.8623 258.109 89.4823 258.064C90.1756 258.064 91.1529 258.345 91.2703 259.144C91.6716 258.42 92.2609 258.064 93.2063 258.064C94.6263 258.064 95.2476 258.952 95.2476 259.838V266.622H93.3249V260.993C93.3249 260.237 93.2529 259.5 92.4089 259.542C91.5809 259.588 91.4316 260.149 91.4316 261.138V266.622H89.5116V260.888C89.5116 260.134 89.4529 259.542 88.5649 259.542C87.6649 259.542 87.6196 260.224 87.6196 261.138V266.622H85.6996V258.286H87.6196V259.144Z" fill="#231F20"/>
<path d="M100.278 262.233C99.8051 262.574 99.2437 262.885 98.7251 263.298C98.4451 263.534 98.4011 263.948 98.4011 264.304C98.4011 264.938 98.5917 265.366 99.3037 265.366C100.441 265.366 100.234 263.918 100.278 263.136V262.233ZM100.545 266.622C100.412 266.342 100.384 266.062 100.426 265.765H100.397C99.9397 266.461 99.3611 266.845 98.7117 266.845C97.1584 266.845 96.4797 266.076 96.4797 264.346C96.4797 262.44 97.8397 261.996 99.3331 261.361C100.16 261.021 100.441 260.666 100.278 259.973C100.173 259.602 99.8931 259.542 99.3757 259.542C98.5051 259.542 98.3584 260.001 98.3717 260.756H96.5371C96.5371 259.174 97.0277 258.065 99.4517 258.065C102.065 258.065 102.245 259.426 102.198 260.534V265.456C102.198 265.825 102.258 266.225 102.361 266.622H100.545Z" fill="#231F20"/>
<path d="M109.273 266.623H107.202V255.538H110.498L111.606 260.682C111.783 261.523 111.886 262.367 111.991 263.238H112.021C112.125 262.13 112.183 261.406 112.345 260.682L113.454 255.538H116.735V266.623H114.666V263.135C114.666 260.932 114.71 258.731 114.843 256.528H114.815L112.598 266.623H111.342L109.167 256.528H109.094C109.226 258.731 109.273 260.932 109.273 263.135V266.623Z" fill="#231F20"/>
<path d="M121.96 261.375V260.651C121.945 259.81 121.724 259.543 120.956 259.543C119.993 259.543 120.04 260.283 120.04 261.036V261.375H121.96ZM118.119 261.155C118.013 259.188 119.017 258.064 120.925 258.064C123.585 258.064 123.88 259.44 123.88 261.731V262.854H120.04V264.067C120.04 265.159 120.484 265.367 121.043 265.367C121.755 265.367 121.975 264.866 121.932 263.799H123.852C123.927 265.648 123.156 266.846 121.191 266.846C118.96 266.846 118.071 265.811 118.119 263.342V261.155Z" fill="#231F20"/>
<path d="M127.107 259.765H127.138C127.373 259.158 127.61 258.819 127.89 258.582C128.438 258.123 128.806 258.154 129.087 258.138V260.414C128.023 260.297 127.225 260.594 127.181 261.805V266.623H125.261V258.286H127.107V259.765Z" fill="#231F20"/>
<path d="M129.637 266.623V255.538H131.559V260.548C131.559 260.902 131.543 261.243 131.529 261.596H131.559L133.377 258.287H135.474L133.377 261.643L135.417 266.623H133.273L132.078 263.224L131.559 264.082V266.623H129.637Z" fill="#231F20"/>
<path d="M139.735 261.375V260.651C139.72 259.81 139.5 259.543 138.732 259.543C137.771 259.543 137.815 260.283 137.815 261.036V261.375H139.735ZM135.893 261.155C135.789 259.188 136.793 258.064 138.703 258.064C141.361 258.064 141.657 259.44 141.657 261.731V262.854H137.815V264.067C137.815 265.159 138.259 265.367 138.82 265.367C139.529 265.367 139.749 264.866 139.707 263.799H141.627C141.703 265.648 140.933 266.846 138.965 266.846C136.735 266.846 135.848 265.811 135.893 263.342V261.155Z" fill="#231F20"/>
<path d="M144.528 265.144H147.574V266.623H142.49V265.116L145.415 259.764H142.548V258.286H147.574V259.662L144.528 265.144Z" fill="#231F20"/>
<path d="M148.627 258.286H150.549V266.622H148.627V258.286ZM148.627 255.537H150.549V257.282H148.627V255.537Z" fill="#231F20"/>
<path fill-rule="evenodd" clip-rule="evenodd" d="M48.5485 17.468V14.3187L88.3552 -1.16745e-05L128.162 14.3187V17.1827L88.2112 3.15065L48.5485 17.468Z" fill="#006C51"/>
<path d="M5.15599 22.3365H54.56V24.7698H5.15599V22.3365Z" fill="#006C51"/>
<path fill-rule="evenodd" clip-rule="evenodd" d="M122.435 22.3365H181.719V24.7698H122.435V22.3365Z" fill="#006C51"/>
<path d="M12.1733 29.1618H55.688V30.7872H12.1733V29.1618Z" fill="#006C51"/>
<path d="M120.573 29.1618H173.828V30.7872H120.573V29.1618Z" fill="#006C51"/>
<path d="M57.7341 73.1496H119.694V20.4056L88.6408 9.20559L57.7341 20.2603V73.1496ZM120.307 73.7643H57.1181V19.8283L88.6408 8.55226L120.307 19.9736V73.7643Z" fill="#006C51"/>
<path d="M78.76 35.5125H81.6227V39.6645H78.76V35.5125Z" fill="#006C51"/>
<path d="M84.344 35.5125H87.2067V39.6645H84.344V35.5125Z" fill="#006C51"/>
<path d="M89.4987 35.5125H92.3653V39.6645H89.4987V35.5125Z" fill="#006C51"/>
<path d="M94.9387 35.5125H97.804V39.6645H94.9387V35.5125Z" fill="#006C51"/>
<path d="M77.296 58.5978H99.4147V33.7578H77.296V58.5978ZM99.92 59.1045H76.788V33.2525H99.92V59.1045Z" fill="#006C51"/>
<path d="M99.6667 41.9192H77.184V41.4139H99.6667V41.9192Z" fill="#006C51"/>
<path d="M82.408 58.5619H81.984V41.6658H82.408V58.5619Z" fill="#006C51"/>
<path d="M88.5667 58.5619H88.1427V41.6658H88.5667V58.5619Z" fill="#006C51"/>
<path d="M94.1507 58.5619H93.728V41.6658H94.1507V58.5619Z" fill="#006C51"/>
<path d="M65.444 42.2405H69.7387V58.1339H65.444V42.2405Z" fill="#006C51"/>
<path d="M71.024 42.2405H75.324V58.1339H71.024V42.2405Z" fill="#006C51"/>
<path d="M101.385 42.2405H105.68V58.1339H101.385V42.2405Z" fill="#006C51"/>
<path d="M106.972 42.2405H111.267V58.1339H106.972V42.2405Z" fill="#006C51"/>
<path d="M76.7547 43.7339H69.7386V43.3245H76.7547V43.7339Z" fill="#006C51"/>
<path d="M76.7547 56.9072H69.7386V56.4978H76.7547V56.9072Z" fill="#006C51"/>
<path d="M106.972 43.7339H99.9533V43.3245H106.972V43.7339Z" fill="#006C51"/>
<path d="M106.972 56.9072H99.9533V56.4978H106.972V56.9072Z" fill="#006C51"/>
<path d="M28.068 41.6672H30.932V45.8192H28.068V41.6672Z" fill="#006C51"/>
<path d="M33.6533 41.6672H36.516V45.8192H33.6533V41.6672Z" fill="#006C51"/>
<path d="M38.8093 41.6672H41.6733V45.8192H38.8093V41.6672Z" fill="#006C51"/>
<path d="M26.6013 64.7539H43.14V39.9165H26.6013V64.7539ZM43.6453 65.2605H26.096V39.4125H43.6453V65.2605Z" fill="#006C51"/>
<path d="M43.392 48.0792H26.492V47.5738H43.392V48.0792Z" fill="#006C51"/>
<path d="M31.716 64.7205H31.2933V47.8272H31.716V64.7205Z" fill="#006C51"/>
<path d="M37.876 64.7205H37.452V47.8272H37.876V64.7205Z" fill="#006C51"/>
<path d="M14.7533 48.3979H19.0467V64.2899H14.7533V48.3979Z" fill="#006C51"/>
<path d="M20.3347 48.3979H24.632V64.2899H20.3347V48.3979Z" fill="#006C51"/>
<path d="M45.252 48.3979H49.548V64.2899H45.252V48.3979Z" fill="#006C51"/>
<path d="M26.0653 49.8912H19.0467V49.4818H26.0653V49.8912Z" fill="#006C51"/>
<path d="M26.0653 63.0645H19.0467V62.6538H26.0653V63.0645Z" fill="#006C51"/>
<path d="M49.264 49.8912H43.8227V49.4818H49.264V49.8912Z" fill="#006C51"/>
<path d="M49.264 63.0645H43.8227V62.6538H49.264V63.0645Z" fill="#006C51"/>
<path d="M3.008 74.8899H54.5613V78.1805H3.008V74.8899Z" fill="#006C51"/>
<path d="M59.8587 73.5992H118.281V78.1819H59.8587V73.5992Z" fill="#006C51"/>
<path d="M123.007 74.8899H174.557V78.1805H123.007V74.8899Z" fill="#006C51"/>
<path d="M146.063 41.6672H148.925V45.8192H146.063V41.6672Z" fill="#006C51"/>
<path d="M140.479 41.6672H143.341V45.8192H140.479V41.6672Z" fill="#006C51"/>
<path d="M135.32 41.6672H138.185V45.8192H135.32V41.6672Z" fill="#006C51"/>
<path d="M133.855 64.7539H150.393V39.9165H133.855V64.7539ZM150.899 65.2605H133.349V39.4125H150.899V65.2605Z" fill="#006C51"/>
<path d="M150.501 48.0792H133.603V47.5738H150.501V48.0792Z" fill="#006C51"/>
<path d="M145.699 64.7205H145.276V47.8272H145.699V64.7205Z" fill="#006C51"/>
<path d="M139.543 64.7205H139.12V47.8272H139.543V64.7205Z" fill="#006C51"/>
<path d="M157.947 48.3979H162.245V64.2899H157.947V48.3979Z" fill="#006C51"/>
<path d="M152.36 48.3979H156.659V64.2899H152.36V48.3979Z" fill="#006C51"/>
<path d="M127.444 48.3979H131.743V64.2899H127.444V48.3979Z" fill="#006C51"/>
<path d="M157.947 49.8912H150.929V49.4818H157.947V49.8912Z" fill="#006C51"/>
<path d="M157.947 63.0645H150.929V62.6538H157.947V63.0645Z" fill="#006C51"/>
<path d="M133.173 49.8912H127.732V49.4818H133.173V49.8912Z" fill="#006C51"/>
<path d="M133.173 63.0645H127.732V62.6538H133.173V63.0645Z" fill="#006C51"/>
<path d="M59.8587 81.0432H61.8053V85.6272H59.8587V81.0432Z" fill="#006C51"/>
<path d="M59.8587 87.4872H61.8053V92.0672H59.8587V87.4872Z" fill="#006C51"/>
<path d="M59.8587 94.0738H61.8053V98.6579H59.8587V94.0738Z" fill="#006C51"/>
<path d="M59.8587 100.661H61.8053V105.243H59.8587V100.661Z" fill="#006C51"/>
<path d="M116.191 81.0432H118.137V85.6272H116.191V81.0432Z" fill="#006C51"/>
<path d="M116.191 87.4872H118.137V92.0672H116.191V87.4872Z" fill="#006C51"/>
<path d="M116.191 94.0738H118.137V98.6579H116.191V94.0738Z" fill="#006C51"/>
<path d="M116.191 100.661H118.137V105.243H116.191V100.661Z" fill="#006C51"/>
<path d="M63.928 110.049H68.1027V93.4218H63.928V110.049ZM68.512 110.458H63.5187V93.0112H68.512V110.458Z" fill="#006C51"/>
<path d="M68.3053 99.5792H63.7227V99.1699H68.3053V99.5792Z" fill="#006C51"/>
<path d="M68.3053 105.159H63.7227V104.751H68.3053V105.159Z" fill="#006C51"/>
<path d="M109.323 110.049H113.495V93.4218H109.323V110.049ZM113.904 110.458H108.913V93.0112H113.904V110.458Z" fill="#006C51"/>
<path d="M113.7 99.5792H109.117V99.1699H113.7V99.5792Z" fill="#006C51"/>
<path d="M113.7 105.159H109.117V104.751H113.7V105.159Z" fill="#006C51"/>
<path d="M40.024 110.33H48.6213V93.4272H40.024V110.33ZM49.0453 110.751H39.6013V93.0032H49.0453V110.751Z" fill="#006C51"/>
<path d="M44.456 110.254H44.0467V93.3605H44.456V110.254Z" fill="#006C51"/>
<path d="M48.548 99.7178H39.812V99.3099H48.548V99.7178Z" fill="#006C51"/>
<path d="M48.6893 105.303H39.8133V104.895H48.6893V105.303Z" fill="#006C51"/>
<path d="M33.796 93.7899H37.808V110.254H33.796V93.7899Z" fill="#006C51"/>
<path d="M50.5507 93.7899H54.56V110.254H50.5507V93.7899Z" fill="#006C51"/>
<path d="M16.6827 110.33H25.28V93.4272H16.6827V110.33ZM25.704 110.751H16.26V93.0032H25.704V110.751Z" fill="#006C51"/>
<path d="M21.1147 110.254H20.7053V93.3605H21.1147V110.254Z" fill="#006C51"/>
<path d="M25.204 99.7178H16.472V99.3099H25.204V99.7178Z" fill="#006C51"/>
<path d="M25.3467 105.303H16.472V104.895H25.3467V105.303Z" fill="#006C51"/>
<path d="M10.4547 93.7899H14.4653V110.254H10.4547V93.7899Z" fill="#006C51"/>
<path d="M27.2107 93.7899H31.2187V110.254H27.2107V93.7899Z" fill="#006C51"/>
<path d="M152.859 110.33H161.456V93.4272H152.859V110.33ZM161.88 110.751H152.436V93.0032H161.88V110.751Z" fill="#006C51"/>
<path d="M157.291 110.254H156.883V93.3605H157.291V110.254Z" fill="#006C51"/>
<path d="M161.383 99.7178H152.647V99.3099H161.383V99.7178Z" fill="#006C51"/>
<path d="M161.528 105.303H152.648V104.895H161.528V105.303Z" fill="#006C51"/>
<path d="M146.636 93.7899H150.645V110.254H146.636V93.7899Z" fill="#006C51"/>
<path d="M163.385 93.7899H167.397V110.254H163.385V93.7899Z" fill="#006C51"/>
<path d="M129.517 110.33H138.119V93.4272H129.517V110.33ZM138.541 110.751H129.096V93.0032H138.541V110.751Z" fill="#006C51"/>
<path d="M133.951 110.254H133.543V93.3605H133.951V110.254Z" fill="#006C51"/>
<path d="M138.045 99.7178H129.308V99.3099H138.045V99.7178Z" fill="#006C51"/>
<path d="M138.185 105.303H129.307V104.895H138.185V105.303Z" fill="#006C51"/>
<path d="M123.293 93.7899H127.304V110.254H123.293V93.7899Z" fill="#006C51"/>
<path d="M140.047 93.7899H144.056V110.254H140.047V93.7899Z" fill="#006C51"/>
<path d="M63.928 138.259H68.1027V132.499H63.928V138.259ZM68.512 138.669H63.5187V132.09H68.512V138.669Z" fill="#006C51"/>
<path d="M109.323 138.259H113.495V132.499H109.323V138.259ZM113.904 138.669H108.913V132.09H113.904V138.669Z" fill="#006C51"/>
<path d="M0 143.905H182.145V146.338H0V143.905Z" fill="#006C51"/>
<path d="M4.15332 140.466H71.4587V141.755H4.15332V140.466Z" fill="#006C51"/>
<path d="M105.539 140.466H172.843V141.755H105.539V140.466Z" fill="#006C51"/>
<path d="M102.387 140.958H74.752V140.549H102.387V140.958Z" fill="#006C51"/>
<path d="M102.387 137.949H74.752V137.541H102.387V137.949Z" fill="#006C51"/>
<path d="M102.387 135.373H74.752V134.962H102.387V135.373Z" fill="#006C51"/>
<path d="M102.387 132.797H74.752V132.386H102.387V132.797Z" fill="#006C51"/>
<path d="M100.669 129.791H76.184V129.381H100.669V129.791Z" fill="#006C51"/>
<path d="M105.791 126.721H105.285V87.0225H71.7108V126.577H71.2028V86.5172H105.791V126.721Z" fill="#006C51"/>
<path d="M75.4347 126.578H74.9267V86.7712H75.4347V126.578Z" fill="#006C51"/>
<path d="M102.209 126.578H101.704V86.7712H102.209V126.578Z" fill="#006C51"/>
<path d="M106.543 82.7285H70.4547V82.2232H106.543V82.7285Z" fill="#006C51"/>
<path fill-rule="evenodd" clip-rule="evenodd" d="M89.3012 93.3885C96.6092 93.9645 97.6599 102.523 97.6599 102.523V126.441H89.3012V93.3885Z" fill="#006C51"/>
<path fill-rule="evenodd" clip-rule="evenodd" d="M87.6261 126.435H79.7648V102.093C79.7648 102.093 80.4261 94.0028 87.6261 93.3961V126.435Z" fill="#006C51"/>
<path d="M89.7257 94.0005L89.5644 93.9899C89.2511 93.9659 88.7244 93.9259 88.5071 93.9259C88.2217 93.9259 87.2364 93.9552 86.9617 93.9765L86.9284 93.5685C87.2191 93.5459 88.2084 93.5165 88.5071 93.5165C88.7404 93.5165 89.2764 93.5565 89.5951 93.5819L89.7564 93.5925L89.7257 94.0005Z" fill="#006C51"/>
<path d="M80.1521 101.012L75.5695 100.152L75.6508 99.7363L80.2321 100.596L80.1521 101.012Z" fill="#006C51"/>
<path d="M81.2843 97.9687L76.4856 94.386L76.7403 94.05L81.5363 97.63L81.2843 97.9687Z" fill="#006C51"/>
<path d="M83.5909 95.3977L80.1536 89.5271L80.5189 89.3124L83.9549 95.1831L83.5909 95.3977Z" fill="#006C51"/>
<path d="M93.5473 95.2602L93.186 95.0376L96.55 89.5976L96.9087 89.8189L93.5473 95.2602Z" fill="#006C51"/>
<path d="M95.7081 97.9705L95.4628 97.6278L100.472 94.0452L100.717 94.3905L95.7081 97.9705Z" fill="#006C51"/>
<path d="M96.9035 100.94L96.8448 100.521L101.357 99.8787L101.417 100.297L96.9035 100.94Z" fill="#006C51"/>
<path d="M86.8592 93.757L85.5699 86.6637L85.5659 81.549H91.7179V86.6264L90.3499 93.6144L89.9352 93.533L91.2965 86.585L91.2925 81.9744H85.9885V86.6264L87.2752 93.681L86.8592 93.757Z" fill="#006C51"/>
<path fill-rule="evenodd" clip-rule="evenodd" d="M0.0258636 155.569L8.91653 211.212H26.0779L35.2725 155.569H22.9925L17.3419 196.674L13.7965 155.569H0.0258636Z" fill="#231F20"/>
<path fill-rule="evenodd" clip-rule="evenodd" d="M47.7127 189.887V199.547C47.5593 200.937 47.9633 203.867 50.4313 203.867C52.8993 203.867 52.7433 200.011 52.7433 200.011V193.899H65.1793V203.402C65.1793 203.402 62.866 212.137 49.814 212.137C36.758 212.137 35.4273 202.015 35.4273 202.015V176.427C35.4273 176.427 36.3527 165.846 50.1207 165.846C63.8873 165.846 65.334 175.659 65.334 175.659V189.887H47.7127ZM47.406 183.007H52.4353V176.583C52.4353 176.583 52.378 174.27 49.814 174.27C47.2487 174.27 47.406 176.427 47.406 176.427V183.007Z" fill="#231F20"/>
<path fill-rule="evenodd" clip-rule="evenodd" d="M68.5153 155.569V211.212H81.57V190.662L88.146 211.212H100.734L92.5607 186.553L99.5007 166.308H87.8353L81.4153 184.854V155.569H68.5153Z" fill="#231F20"/>
<path fill-rule="evenodd" clip-rule="evenodd" d="M114.502 181.464H102.527V176.427C102.527 165.384 117.738 165.075 117.738 165.075C132.335 165.075 132.43 176.892 132.43 176.892V211.212H119.998V206.739C115.526 212.388 110.956 211.212 110.956 211.212C104.475 210.749 103.298 207.817 102.684 204.329C102.064 200.835 102.527 195.593 102.684 193.435C102.835 191.277 105.151 187.477 112.803 184.548C120.46 181.617 119.998 177.512 119.998 177.512L119.688 174.116C115.06 171.648 114.502 176.427 114.502 176.427V181.464ZM120.306 194.824V188.812C120.306 188.812 115.735 189.272 115.119 193.128V198.008C115.119 198.008 114.964 201.864 116.814 201.864C116.814 201.864 119.998 201.864 120.306 199.548V194.824Z" fill="#231F20"/>
<path fill-rule="evenodd" clip-rule="evenodd" d="M136.595 165.691V211.211H148.667V177.202C148.667 177.202 149.297 175.506 151.149 175.506C153 175.506 153.447 177.202 153.447 177.202V211.211H165.364V177.665C165.364 177.665 165.673 175.506 167.985 175.506C170.299 175.506 170.299 177.665 170.299 177.665V211.211H182.064V173.039C182.064 173.039 181.903 165.117 174.557 165.117C167.209 165.117 165.517 170.782 165.517 170.782C165.517 170.782 162.743 165.075 157.245 165.075C151.752 165.075 148.821 170.627 148.821 170.627V165.691H136.595Z" fill="#231F20"/>
</svg>
